<svg width="649" height="505" viewBox="0 0 649 505" fill="none" xmlns="http://www.w3.org/2000/svg">
<path d="M565.021 137.814C584.547 136.655 604.526 134.856 623.67 137.655C646.695 141.022 653.243 157.047 644.157 179.017C634.496 202.374 614.674 211.23 591.699 214.186C568.95 217.112 550.905 227.065 533.728 242.401C490.275 281.199 461.123 331.383 424.496 375.562C397.116 408.586 367.785 439.249 325.125 449.749C300.288 455.862 274.208 451.477 251.579 436.667C241.435 430.028 232.892 421.801 224.547 413.276L220.979 409.608L217.649 405.645C200.962 385.756 183.796 364.83 167.583 343.846C148.786 319.517 131.667 293.83 111.988 270.262C95.7562 250.822 72.706 242.745 47.7651 239.434C26.2818 236.581 7.5311 230.09 1.41254 204.972C-3.58145 184.471 5.96306 168.664 27.2016 168.166C77.0238 166.999 123.924 176.783 160.279 213.546C177.41 230.869 191.016 251.744 205.725 271.38C221.196 292.033 235.447 313.63 251.519 333.787C258.129 342.078 268.649 348.711 277.509 356.324L278.176 356.598C281.486 358.001 284.44 359.867 287.682 361.404C316.243 374.947 346.298 347.558 362.805 326.735C398.842 281.278 431.778 233.24 469.539 189.315C493.759 161.142 525.435 140.166 565.021 137.814Z" fill="url(#paint0_linear_10_429)"/>
<path d="M627.647 269.502C646.255 270.143 650.636 276.785 641.138 291.39C630.081 308.394 607.681 323.135 595 339C575.473 363.429 563.645 395.163 544 419.5C512.8 458.153 477.026 482.265 429.002 497.395C407.101 504.294 378.294 507.335 357.999 500.731C401.211 468.325 452.665 452.084 483 404.5C498 380.97 508.599 356.867 520.837 338.041C532.217 320.534 565.109 287.52 583.699 277.445C597.301 270.073 611.643 269.012 627.647 269.502Z" fill="#038CB2"/>
<path d="M612.512 0.468506C615.455 0.396419 618.498 0.252205 621.341 0.859131C646.954 6.32708 654.474 33.1566 637.558 56.0203C623.689 74.7651 603.714 77.7145 582.906 79.1931C562.339 80.6546 541.391 79.8753 521.258 83.5906C488.675 89.6034 464.702 111.025 444.102 135.366C421.738 161.792 401.666 190.149 379.565 216.81C366.953 232.025 354.054 248.034 338.168 259.284C307.264 281.168 274.955 276.424 247.368 249.749C238.466 241.141 230.435 229.842 223.666 219.549C220.482 214.033 212 202.5 211.5 201.5C211.51 201.487 211.52 201.474 211.53 201.461C200.644 187.083 188.009 174.081 176.444 161.499C154.233 137.336 125.032 127.303 93.5745 122.667C73.8533 119.761 53.5101 119.481 34.3958 114.429C8.01155 107.457 3.59217 94.4742 0.812805 71.197C-0.362722 61.3513 10.7381 48.8253 21.7249 48.9148C77.5692 49.3695 133.631 48.9302 185.048 76.364C216.759 93.2838 240.636 118.088 259.455 148.227C261.636 151.719 266.051 158.703 269.008 163.943C271.83 167.837 274.371 172.69 277.5 176C288.582 187.721 303.497 187.969 313.469 175.569C332.55 151.844 349.517 126.42 368.537 102.642C385.955 80.8684 402.498 57.3539 423.815 39.9968C451.723 17.2729 485.587 4.14732 522.619 2.8269C552.573 1.75891 582.546 1.20218 612.512 0.468506ZM216.171 149.24C218.7 149.79 220.118 150.15 221.227 150.35C220.34 150.19 219.255 149.928 217.562 149.548C217.139 149.453 216.678 149.35 216.172 149.24L214.515 148.887L216.171 149.24Z" fill="url(#paint1_linear_10_429)"/>
<defs>
<linearGradient id="paint0_linear_10_429" x1="0.111755" y1="294.294" x2="648.098" y2="294.294" gradientUnits="userSpaceOnUse">
<stop stop-color="#FE8D07"/>
<stop offset="1" stop-color="#FA4E08"/>
</linearGradient>
<linearGradient id="paint1_linear_10_429" x1="0.726868" y1="136.759" x2="646.623" y2="136.759" gradientUnits="userSpaceOnUse">
<stop stop-color="#FE8D07"/>
<stop offset="1" stop-color="#FA4E08"/>
</linearGradient>
</defs>
</svg>
